<svg width="22" height="22" viewBox="0 0 22 22" fill="none" xmlns="http://www.w3.org/2000/svg">
<path d="M17.4193 3.66797H4.58594C3.85659 3.66797 3.15712 3.9577 2.64139 4.47343C2.12567 4.98915 1.83594 5.68862 1.83594 6.41797V15.5846C1.83594 16.314 2.12567 17.0135 2.64139 17.5292C3.15712 18.0449 3.85659 18.3346 4.58594 18.3346H17.4193C18.1486 18.3346 18.8481 18.0449 19.3638 17.5292C19.8795 17.0135 20.1693 16.314 20.1693 15.5846V6.41797C20.1693 5.68862 19.8795 4.98915 19.3638 4.47343C18.8481 3.9577 18.1486 3.66797 17.4193 3.66797ZM16.8051 5.5013L11.0026 9.85547L5.2001 5.5013H16.8051ZM17.4193 16.5013H4.58594C4.34282 16.5013 4.10966 16.4047 3.93776 16.2328C3.76585 16.0609 3.66927 15.8278 3.66927 15.5846V6.64714L10.4526 11.7346C10.6113 11.8536 10.8043 11.918 11.0026 11.918C11.2009 11.918 11.3939 11.8536 11.5526 11.7346L18.3359 6.64714V15.5846C18.3359 15.8278 18.2394 16.0609 18.0675 16.2328C17.8955 16.4047 17.6624 16.5013 17.4193 16.5013Z" fill="black"/>
</svg>
