<svg width="22" height="24" viewBox="0 0 22 24" fill="none" xmlns="http://www.w3.org/2000/svg">
<path d="M15.9526 21.2572C12.2101 21.2521 8.62231 19.6829 5.97597 16.8936C3.32963 14.1043 1.84079 10.3227 1.83594 6.37812C1.83594 5.19938 2.28019 4.06893 3.07097 3.23544C3.86175 2.40195 4.93427 1.9337 6.0526 1.9337C6.28942 1.9318 6.52583 1.95446 6.75844 2.00134C6.9833 2.03641 7.20436 2.09466 7.41844 2.17525C7.569 2.23093 7.70316 2.32707 7.80766 2.45416C7.91216 2.58125 7.98338 2.73489 8.01427 2.89988L9.2701 8.69694C9.30395 8.85429 9.29988 9.01808 9.25825 9.17334C9.21661 9.32861 9.13875 9.47042 9.03177 9.58582C8.9126 9.72109 8.90344 9.73075 7.77594 10.3491C8.67885 12.4369 10.263 14.1135 12.2401 15.0737C12.8359 13.8756 12.8451 13.866 12.9734 13.7404C13.0829 13.6276 13.2175 13.5456 13.3648 13.5017C13.5121 13.4578 13.6675 13.4535 13.8168 13.4892L19.3168 14.8128C19.4683 14.8499 19.6084 14.927 19.7238 15.0369C19.8393 15.1467 19.9264 15.2857 19.9768 15.4409C20.0541 15.6702 20.1124 15.9062 20.1509 16.1462C20.1878 16.389 20.2062 16.6345 20.2059 16.8805C20.189 18.0541 19.7323 19.1731 18.9354 19.9931C18.1385 20.8131 17.0662 21.2676 15.9526 21.2572ZM6.0526 3.86606C5.42125 3.8686 4.81644 4.13408 4.37 4.60463C3.92356 5.07519 3.67168 5.71266 3.66927 6.37812C3.6717 9.81103 4.96661 13.1026 7.26966 15.53C9.5727 17.9575 12.6956 19.3223 15.9526 19.3249C16.584 19.3223 17.1888 19.0569 17.6352 18.5863C18.0816 18.1158 18.3335 17.4783 18.3359 16.8128C18.3359 16.7065 18.3359 16.6003 18.3359 16.494L14.0826 15.4602L13.8168 15.9916C13.4043 16.8321 13.1018 17.4408 12.3318 17.1123C10.8127 16.5393 9.43391 15.6167 8.29544 14.4118C7.15698 13.2068 6.28747 11.7497 5.7501 10.1462C5.4201 9.39259 6.04344 9.04476 6.83177 8.60998L7.33594 8.34912L6.3551 3.86606H6.0526Z" fill="black"/>
</svg>
